<?xml version="1.0" encoding="utf-8"?>
<!-- Generator: Adobe Illustrator 23.0.1, SVG Export Plug-In . SVG Version: 6.00 Build 0)  -->
<svg version="1.1" id="Layer_1" xmlns="http://www.w3.org/2000/svg" xmlns:xlink="http://www.w3.org/1999/xlink" x="0px" y="0px"
	 viewBox="0 0 50 30" style="enable-background:new 0 0 50 30;" xml:space="preserve">
<style type="text/css">
	.st0{fill:#FFFFFF;}
	.st1{fill:#00AEEF;}
</style>
<path class="st0" d="M18.23,7.46c4.84,0,7,3,7,7.55c0,4.55-2.16,7.55-7,7.55c-4.84,0-7-3-7-7.55C11.23,10.45,13.39,7.46,18.23,7.46z
	 M18.23,19.01c1.53,0,2.22-0.98,2.22-4s-0.69-4-2.22-4c-1.53,0-2.22,0.98-2.22,4S16.7,19.01,18.23,19.01z"/>
<path class="st0" d="M30.42,22.2h-0.13c-2.57,0-4.65-2.08-4.65-4.65V2.04h1.59c1.76,0,3.19,1.43,3.19,3.19v4.76
	c0.49-1.47,1.93-2.53,3.92-2.53c3.4,0,5.3,2.56,5.3,7.55c0,4.98-1.9,7.55-5.3,7.55c-1.99,0-3.43-1.07-3.92-2.54V22.2z M32.64,19.01
	c1.53,0,2.22-0.98,2.22-4s-0.69-4-2.22-4c-1.53,0-2.22,0.98-2.22,4S31.11,19.01,32.64,19.01z"/>
<path class="st1" d="M42.43,15.46v6.74h0c-2.64,0-4.78-2.14-4.78-4.78V9.68c0-1.04,0.84-1.88,1.88-1.88h0.55
	c1.3,0,2.36,1.05,2.36,2.36v0.52c0.37-2.16,1.58-3.23,3.63-3.23c0.43,0,0.78,0.03,1.01,0.11l-0.06,3.89
	c-0.29-0.03-0.58-0.03-1.01-0.03C43.79,11.43,42.43,12.81,42.43,15.46z"/>
<path class="st0" d="M5.93,22.95c0,1.41-0.55,2.02-1.81,2.02H2.93v1.3c0,1.22,0.98,2.21,2.2,2.21c0.01,0,0.01,0,0.02,0
	c3.89,0,5.56-1.84,5.56-5.21V7.8h0c-2.64,0-4.78,2.14-4.78,4.78V22.95z"/>
<circle class="st1" cx="8.44" cy="4.31" r="2.27"/>
</svg>
